<svg id="visual" viewBox="0 0 900 600" width="900" height="600" xmlns="http://www.w3.org/2000/svg" xmlns:xlink="http://www.w3.org/1999/xlink" version="1.1"><path d="M0 55L13.7 63C27.3 71 54.7 87 82 119C109.3 151 136.7 199 163.8 208C191 217 218 187 245.2 186C272.3 185 299.7 213 327 222C354.3 231 381.7 221 409 199C436.3 177 463.7 143 491 140C518.3 137 545.7 165 573 183C600.3 201 627.7 209 654.8 199C682 189 709 161 736.2 143C763.3 125 790.7 117 818 112C845.3 107 872.7 105 886.3 104L900 103L900 0L886.3 0C872.7 0 845.3 0 818 0C790.7 0 763.3 0 736.2 0C709 0 682 0 654.8 0C627.7 0 600.3 0 573 0C545.7 0 518.3 0 491 0C463.7 0 436.3 0 409 0C381.7 0 354.3 0 327 0C299.7 0 272.3 0 245.2 0C218 0 191 0 163.8 0C136.7 0 109.3 0 82 0C54.7 0 27.3 0 13.7 0L0 0Z" fill="#004cbb"></path><path d="M0 265L13.7 281C27.3 297 54.7 329 82 338C109.3 347 136.7 333 163.8 313C191 293 218 267 245.2 270C272.3 273 299.7 305 327 312C354.3 319 381.7 301 409 298C436.3 295 463.7 307 491 323C518.3 339 545.7 359 573 354C600.3 349 627.7 319 654.8 304C682 289 709 289 736.2 284C763.3 279 790.7 269 818 273C845.3 277 872.7 295 886.3 304L900 313L900 101L886.3 102C872.7 103 845.3 105 818 110C790.7 115 763.3 123 736.2 141C709 159 682 187 654.8 197C627.7 207 600.3 199 573 181C545.7 163 518.3 135 491 138C463.7 141 436.3 175 409 197C381.7 219 354.3 229 327 220C299.7 211 272.3 183 245.2 184C218 185 191 215 163.8 206C136.7 197 109.3 149 82 117C54.7 85 27.3 69 13.7 61L0 53Z" fill="#0056d6"></path><path d="M0 301L13.7 316C27.3 331 54.7 361 82 374C109.3 387 136.7 383 163.8 362C191 341 218 303 245.2 313C272.3 323 299.7 381 327 396C354.3 411 381.7 383 409 368C436.3 353 463.7 351 491 364C518.3 377 545.7 405 573 407C600.3 409 627.7 385 654.8 368C682 351 709 341 736.2 337C763.3 333 790.7 335 818 347C845.3 359 872.7 381 886.3 392L900 403L900 311L886.3 302C872.7 293 845.3 275 818 271C790.7 267 763.3 277 736.2 282C709 287 682 287 654.8 302C627.7 317 600.3 347 573 352C545.7 357 518.3 337 491 321C463.7 305 436.3 293 409 296C381.7 299 354.3 317 327 310C299.7 303 272.3 271 245.2 268C218 265 191 291 163.8 311C136.7 331 109.3 345 82 336C54.7 327 27.3 295 13.7 279L0 263Z" fill="#0061f1"></path><path d="M0 349L13.7 368C27.3 387 54.7 425 82 444C109.3 463 136.7 463 163.8 443C191 423 218 383 245.2 383C272.3 383 299.7 423 327 436C354.3 449 381.7 435 409 425C436.3 415 463.7 409 491 418C518.3 427 545.7 451 573 452C600.3 453 627.7 431 654.8 412C682 393 709 377 736.2 378C763.3 379 790.7 397 818 416C845.3 435 872.7 455 886.3 465L900 475L900 401L886.3 390C872.7 379 845.3 357 818 345C790.7 333 763.3 331 736.2 335C709 339 682 349 654.8 366C627.7 383 600.3 407 573 405C545.7 403 518.3 375 491 362C463.7 349 436.3 351 409 366C381.7 381 354.3 409 327 394C299.7 379 272.3 321 245.2 311C218 301 191 339 163.8 360C136.7 381 109.3 385 82 372C54.7 359 27.3 329 13.7 314L0 299Z" fill="#2071ff"></path><path d="M0 481L13.7 492C27.3 503 54.7 525 82 534C109.3 543 136.7 539 163.8 529C191 519 218 503 245.2 498C272.3 493 299.7 499 327 504C354.3 509 381.7 513 409 520C436.3 527 463.7 537 491 538C518.3 539 545.7 531 573 532C600.3 533 627.7 543 654.8 542C682 541 709 529 736.2 531C763.3 533 790.7 549 818 557C845.3 565 872.7 565 886.3 565L900 565L900 473L886.3 463C872.7 453 845.3 433 818 414C790.7 395 763.3 377 736.2 376C709 375 682 391 654.8 410C627.7 429 600.3 451 573 450C545.7 449 518.3 425 491 416C463.7 407 436.3 413 409 423C381.7 433 354.3 447 327 434C299.7 421 272.3 381 245.2 381C218 381 191 421 163.8 441C136.7 461 109.3 461 82 442C54.7 423 27.3 385 13.7 366L0 347Z" fill="#4385ff"></path><path d="M0 601L13.7 601C27.3 601 54.7 601 82 601C109.3 601 136.7 601 163.8 601C191 601 218 601 245.2 601C272.3 601 299.7 601 327 601C354.3 601 381.7 601 409 601C436.3 601 463.7 601 491 601C518.3 601 545.7 601 573 601C600.3 601 627.7 601 654.8 601C682 601 709 601 736.2 601C763.3 601 790.7 601 818 601C845.3 601 872.7 601 886.3 601L900 601L900 563L886.3 563C872.7 563 845.3 563 818 555C790.7 547 763.3 531 736.2 529C709 527 682 539 654.8 540C627.7 541 600.3 531 573 530C545.7 529 518.3 537 491 536C463.7 535 436.3 525 409 518C381.7 511 354.3 507 327 502C299.7 497 272.3 491 245.2 496C218 501 191 517 163.8 527C136.7 537 109.3 541 82 532C54.7 523 27.3 501 13.7 490L0 479Z" fill="#6198ff"></path></svg>