<svg id="visual" viewBox="0 0 900 600" width="900" height="600" xmlns="http://www.w3.org/2000/svg" xmlns:xlink="http://www.w3.org/1999/xlink" version="1.1"><path d="M0 217L13.7 221C27.3 225 54.7 233 82 224C109.3 215 136.7 189 163.8 164C191 139 218 115 245.2 116C272.3 117 299.7 143 327 152C354.3 161 381.7 153 409 165C436.3 177 463.7 209 491 211C518.3 213 545.7 185 573 184C600.3 183 627.7 209 654.8 212C682 215 709 195 736.2 189C763.3 183 790.7 191 818 186C845.3 181 872.7 163 886.3 154L900 145L900 0L886.3 0C872.7 0 845.3 0 818 0C790.7 0 763.3 0 736.2 0C709 0 682 0 654.8 0C627.7 0 600.3 0 573 0C545.7 0 518.3 0 491 0C463.7 0 436.3 0 409 0C381.7 0 354.3 0 327 0C299.7 0 272.3 0 245.2 0C218 0 191 0 163.8 0C136.7 0 109.3 0 82 0C54.7 0 27.3 0 13.7 0L0 0Z" fill="#6198ff"></path><path d="M0 265L13.7 273C27.3 281 54.7 297 82 294C109.3 291 136.7 269 163.8 244C191 219 218 191 245.2 193C272.3 195 299.7 227 327 241C354.3 255 381.7 251 409 257C436.3 263 463.7 279 491 282C518.3 285 545.7 275 573 275C600.3 275 627.7 285 654.8 280C682 275 709 255 736.2 253C763.3 251 790.7 267 818 271C845.3 275 872.7 267 886.3 263L900 259L900 143L886.3 152C872.7 161 845.3 179 818 184C790.7 189 763.3 181 736.2 187C709 193 682 213 654.8 210C627.7 207 600.3 181 573 182C545.7 183 518.3 211 491 209C463.7 207 436.3 175 409 163C381.7 151 354.3 159 327 150C299.7 141 272.3 115 245.2 114C218 113 191 137 163.8 162C136.7 187 109.3 213 82 222C54.7 231 27.3 223 13.7 219L0 215Z" fill="#3c80ff"></path><path d="M0 331L13.7 354C27.3 377 54.7 423 82 436C109.3 449 136.7 429 163.8 404C191 379 218 349 245.2 341C272.3 333 299.7 347 327 356C354.3 365 381.7 369 409 376C436.3 383 463.7 393 491 384C518.3 375 545.7 347 573 345C600.3 343 627.7 367 654.8 369C682 371 709 351 736.2 353C763.3 355 790.7 379 818 387C845.3 395 872.7 387 886.3 383L900 379L900 257L886.3 261C872.7 265 845.3 273 818 269C790.7 265 763.3 249 736.2 251C709 253 682 273 654.8 278C627.7 283 600.3 273 573 273C545.7 273 518.3 283 491 280C463.7 277 436.3 261 409 255C381.7 249 354.3 253 327 239C299.7 225 272.3 193 245.2 191C218 189 191 217 163.8 242C136.7 267 109.3 289 82 292C54.7 295 27.3 279 13.7 271L0 263Z" fill="#0066ff"></path><path d="M0 421L13.7 438C27.3 455 54.7 489 82 498C109.3 507 136.7 491 163.8 469C191 447 218 419 245.2 417C272.3 415 299.7 439 327 444C354.3 449 381.7 435 409 435C436.3 435 463.7 449 491 441C518.3 433 545.7 403 573 408C600.3 413 627.7 453 654.8 460C682 467 709 441 736.2 432C763.3 423 790.7 431 818 442C845.3 453 872.7 467 886.3 474L900 481L900 377L886.3 381C872.7 385 845.3 393 818 385C790.7 377 763.3 353 736.2 351C709 349 682 369 654.8 367C627.7 365 600.3 341 573 343C545.7 345 518.3 373 491 382C463.7 391 436.3 381 409 374C381.7 367 354.3 363 327 354C299.7 345 272.3 331 245.2 339C218 347 191 377 163.8 402C136.7 427 109.3 447 82 434C54.7 421 27.3 375 13.7 352L0 329Z" fill="#0059dd"></path><path d="M0 601L13.7 601C27.3 601 54.7 601 82 601C109.3 601 136.7 601 163.8 601C191 601 218 601 245.2 601C272.3 601 299.7 601 327 601C354.3 601 381.7 601 409 601C436.3 601 463.7 601 491 601C518.3 601 545.7 601 573 601C600.3 601 627.7 601 654.8 601C682 601 709 601 736.2 601C763.3 601 790.7 601 818 601C845.3 601 872.7 601 886.3 601L900 601L900 479L886.3 472C872.7 465 845.3 451 818 440C790.7 429 763.3 421 736.2 430C709 439 682 465 654.8 458C627.7 451 600.3 411 573 406C545.7 401 518.3 431 491 439C463.7 447 436.3 433 409 433C381.7 433 354.3 447 327 442C299.7 437 272.3 413 245.2 415C218 417 191 445 163.8 467C136.7 489 109.3 505 82 496C54.7 487 27.3 453 13.7 436L0 419Z" fill="#004cbb"></path></svg>