<svg id="visual" viewBox="0 0 900 600" width="900" height="600" xmlns="http://www.w3.org/2000/svg" xmlns:xlink="http://www.w3.org/1999/xlink" version="1.1"><rect x="0" y="0" width="900" height="600" fill="#F7CACA"></rect><path d="M0 391L21.5 388C43 385 86 379 128.8 377.5C171.7 376 214.3 379 257.2 385.8C300 392.7 343 403.3 385.8 410.5C428.7 417.7 471.3 421.3 514.2 416C557 410.7 600 396.3 642.8 395.3C685.7 394.3 728.3 406.7 771.2 406.5C814 406.3 857 393.7 878.5 387.3L900 381L900 601L878.5 601C857 601 814 601 771.2 601C728.3 601 685.7 601 642.8 601C600 601 557 601 514.2 601C471.3 601 428.7 601 385.8 601C343 601 300 601 257.2 601C214.3 601 171.7 601 128.8 601C86 601 43 601 21.5 601L0 601Z" fill="#4facf7"></path><path d="M0 477L21.5 477.2C43 477.3 86 477.7 128.8 466.8C171.7 456 214.3 434 257.2 431.7C300 429.3 343 446.7 385.8 455C428.7 463.3 471.3 462.7 514.2 458.7C557 454.7 600 447.3 642.8 443.3C685.7 439.3 728.3 438.7 771.2 437.7C814 436.7 857 435.3 878.5 434.7L900 434L900 601L878.5 601C857 601 814 601 771.2 601C728.3 601 685.7 601 642.8 601C600 601 557 601 514.2 601C471.3 601 428.7 601 385.8 601C343 601 300 601 257.2 601C214.3 601 171.7 601 128.8 601C86 601 43 601 21.5 601L0 601Z" fill="#7d91ea"></path><path d="M0 450L21.5 452C43 454 86 458 128.8 459.5C171.7 461 214.3 460 257.2 462.7C300 465.3 343 471.7 385.8 477.2C428.7 482.7 471.3 487.3 514.2 486.8C557 486.3 600 480.7 642.8 473.3C685.7 466 728.3 457 771.2 461C814 465 857 482 878.5 490.5L900 499L900 601L878.5 601C857 601 814 601 771.2 601C728.3 601 685.7 601 642.8 601C600 601 557 601 514.2 601C471.3 601 428.7 601 385.8 601C343 601 300 601 257.2 601C214.3 601 171.7 601 128.8 601C86 601 43 601 21.5 601L0 601Z" fill="#a571cd"></path><path d="M0 500L21.5 501.7C43 503.3 86 506.7 128.8 505.3C171.7 504 214.3 498 257.2 493.8C300 489.7 343 487.3 385.8 490.2C428.7 493 471.3 501 514.2 502.5C557 504 600 499 642.8 498.8C685.7 498.7 728.3 503.3 771.2 508.8C814 514.3 857 520.7 878.5 523.8L900 527L900 601L878.5 601C857 601 814 601 771.2 601C728.3 601 685.7 601 642.8 601C600 601 557 601 514.2 601C471.3 601 428.7 601 385.8 601C343 601 300 601 257.2 601C214.3 601 171.7 601 128.8 601C86 601 43 601 21.5 601L0 601Z" fill="#bf4ca0"></path><path d="M0 537L21.5 537C43 537 86 537 128.8 537.2C171.7 537.3 214.3 537.7 257.2 536.7C300 535.7 343 533.3 385.8 538C428.7 542.7 471.3 554.3 514.2 553.2C557 552 600 538 642.8 537.2C685.7 536.3 728.3 548.7 771.2 552.8C814 557 857 553 878.5 551L900 549L900 601L878.5 601C857 601 814 601 771.2 601C728.3 601 685.7 601 642.8 601C600 601 557 601 514.2 601C471.3 601 428.7 601 385.8 601C343 601 300 601 257.2 601C214.3 601 171.7 601 128.8 601C86 601 43 601 21.5 601L0 601Z" fill="#c62368"></path></svg>