<svg id="visual" viewBox="0 0 900 600" width="900" height="600" xmlns="http://www.w3.org/2000/svg" xmlns:xlink="http://www.w3.org/1999/xlink" version="1.1"><rect x="0" y="0" width="900" height="600" fill="#001220"></rect><path d="M0 196L21.5 196.7C43 197.3 86 198.7 128.8 200.7C171.7 202.7 214.3 205.3 257.2 200.3C300 195.3 343 182.7 385.8 181.8C428.7 181 471.3 192 514.2 192C557 192 600 181 642.8 175.8C685.7 170.7 728.3 171.3 771.2 179.5C814 187.7 857 203.3 878.5 211.2L900 219L900 0L878.5 0C857 0 814 0 771.2 0C728.3 0 685.7 0 642.8 0C600 0 557 0 514.2 0C471.3 0 428.7 0 385.8 0C343 0 300 0 257.2 0C214.3 0 171.7 0 128.8 0C86 0 43 0 21.5 0L0 0Z" fill="#fa7268"></path><path d="M0 156L21.5 156.8C43 157.7 86 159.3 128.8 161.7C171.7 164 214.3 167 257.2 162.8C300 158.7 343 147.3 385.8 148.5C428.7 149.7 471.3 163.3 514.2 169C557 174.7 600 172.3 642.8 171.8C685.7 171.3 728.3 172.7 771.2 177.2C814 181.7 857 189.3 878.5 193.2L900 197L900 0L878.5 0C857 0 814 0 771.2 0C728.3 0 685.7 0 642.8 0C600 0 557 0 514.2 0C471.3 0 428.7 0 385.8 0C343 0 300 0 257.2 0C214.3 0 171.7 0 128.8 0C86 0 43 0 21.5 0L0 0Z" fill="#ef5f67"></path><path d="M0 158L21.5 146.3C43 134.7 86 111.3 128.8 109.5C171.7 107.7 214.3 127.3 257.2 128.5C300 129.7 343 112.3 385.8 113.7C428.7 115 471.3 135 514.2 134.2C557 133.3 600 111.7 642.8 105C685.7 98.3 728.3 106.7 771.2 112.8C814 119 857 123 878.5 125L900 127L900 0L878.5 0C857 0 814 0 771.2 0C728.3 0 685.7 0 642.8 0C600 0 557 0 514.2 0C471.3 0 428.7 0 385.8 0C343 0 300 0 257.2 0C214.3 0 171.7 0 128.8 0C86 0 43 0 21.5 0L0 0Z" fill="#e34c67"></path><path d="M0 109L21.5 106.5C43 104 86 99 128.8 93.5C171.7 88 214.3 82 257.2 83.7C300 85.3 343 94.7 385.8 99.2C428.7 103.7 471.3 103.3 514.2 95.5C557 87.7 600 72.3 642.8 69C685.7 65.7 728.3 74.3 771.2 74.2C814 74 857 65 878.5 60.5L900 56L900 0L878.5 0C857 0 814 0 771.2 0C728.3 0 685.7 0 642.8 0C600 0 557 0 514.2 0C471.3 0 428.7 0 385.8 0C343 0 300 0 257.2 0C214.3 0 171.7 0 128.8 0C86 0 43 0 21.5 0L0 0Z" fill="#d53867"></path><path d="M0 47L21.5 50.2C43 53.3 86 59.7 128.8 59C171.7 58.3 214.3 50.7 257.2 48C300 45.3 343 47.7 385.8 48.2C428.7 48.7 471.3 47.3 514.2 45C557 42.7 600 39.3 642.8 40.3C685.7 41.3 728.3 46.7 771.2 51.5C814 56.3 857 60.7 878.5 62.8L900 65L900 0L878.5 0C857 0 814 0 771.2 0C728.3 0 685.7 0 642.8 0C600 0 557 0 514.2 0C471.3 0 428.7 0 385.8 0C343 0 300 0 257.2 0C214.3 0 171.7 0 128.8 0C86 0 43 0 21.5 0L0 0Z" fill="#c62368"></path></svg>