<svg id="visual" viewBox="0 0 900 600" width="900" height="600" xmlns="http://www.w3.org/2000/svg" xmlns:xlink="http://www.w3.org/1999/xlink" version="1.1"><rect x="0" y="0" width="900" height="600" fill="#001220"></rect><path d="M0 384L21.5 389C43 394 86 404 128.8 413.7C171.7 423.3 214.3 432.7 257.2 426.3C300 420 343 398 385.8 392.7C428.7 387.3 471.3 398.7 514.2 398.3C557 398 600 386 642.8 389.2C685.7 392.3 728.3 410.7 771.2 407C814 403.3 857 377.7 878.5 364.8L900 352L900 601L878.5 601C857 601 814 601 771.2 601C728.3 601 685.7 601 642.8 601C600 601 557 601 514.2 601C471.3 601 428.7 601 385.8 601C343 601 300 601 257.2 601C214.3 601 171.7 601 128.8 601C86 601 43 601 21.5 601L0 601Z" fill="#0066ff"></path><path d="M0 461L21.5 454.7C43 448.3 86 435.7 128.8 429.5C171.7 423.3 214.3 423.7 257.2 419.5C300 415.3 343 406.7 385.8 414.8C428.7 423 471.3 448 514.2 455C557 462 600 451 642.8 439.2C685.7 427.3 728.3 414.7 771.2 420.5C814 426.3 857 450.7 878.5 462.8L900 475L900 601L878.5 601C857 601 814 601 771.2 601C728.3 601 685.7 601 642.8 601C600 601 557 601 514.2 601C471.3 601 428.7 601 385.8 601C343 601 300 601 257.2 601C214.3 601 171.7 601 128.8 601C86 601 43 601 21.5 601L0 601Z" fill="#007aff"></path><path d="M0 483L21.5 483.7C43 484.3 86 485.7 128.8 483.5C171.7 481.3 214.3 475.7 257.2 467.8C300 460 343 450 385.8 455.3C428.7 460.7 471.3 481.3 514.2 492.8C557 504.3 600 506.7 642.8 504.2C685.7 501.7 728.3 494.3 771.2 490.2C814 486 857 485 878.5 484.5L900 484L900 601L878.5 601C857 601 814 601 771.2 601C728.3 601 685.7 601 642.8 601C600 601 557 601 514.2 601C471.3 601 428.7 601 385.8 601C343 601 300 601 257.2 601C214.3 601 171.7 601 128.8 601C86 601 43 601 21.5 601L0 601Z" fill="#008cff"></path><path d="M0 508L21.5 509.7C43 511.3 86 514.7 128.8 513C171.7 511.3 214.3 504.7 257.2 501.8C300 499 343 500 385.8 498.3C428.7 496.7 471.3 492.3 514.2 494C557 495.7 600 503.3 642.8 511.5C685.7 519.7 728.3 528.3 771.2 532.2C814 536 857 535 878.5 534.5L900 534L900 601L878.5 601C857 601 814 601 771.2 601C728.3 601 685.7 601 642.8 601C600 601 557 601 514.2 601C471.3 601 428.7 601 385.8 601C343 601 300 601 257.2 601C214.3 601 171.7 601 128.8 601C86 601 43 601 21.5 601L0 601Z" fill="#2b9dfc"></path><path d="M0 570L21.5 564.2C43 558.3 86 546.7 128.8 544.5C171.7 542.3 214.3 549.7 257.2 553C300 556.3 343 555.7 385.8 557.3C428.7 559 471.3 563 514.2 558.2C557 553.3 600 539.7 642.8 536C685.7 532.3 728.3 538.7 771.2 541C814 543.3 857 541.7 878.5 540.8L900 540L900 601L878.5 601C857 601 814 601 771.2 601C728.3 601 685.7 601 642.8 601C600 601 557 601 514.2 601C471.3 601 428.7 601 385.8 601C343 601 300 601 257.2 601C214.3 601 171.7 601 128.8 601C86 601 43 601 21.5 601L0 601Z" fill="#4facf7"></path></svg>